<svg xmlns="http://www.w3.org/2000/svg" xmlns:xlink="http://www.w3.org/1999/xlink" width="48" zoomAndPan="magnify" viewBox="0 0 36 36.000001" height="48" preserveAspectRatio="xMidYMid meet" version="1.0"><defs><clipPath id="153c803b1d"><path d="M 0.488281 0 L 35.511719 0 L 35.511719 35.027344 L 0.488281 35.027344 Z M 0.488281 0 " clip-rule="nonzero"/></clipPath></defs><g clip-path="url(#153c803b1d)"><path fill="#a87a08" d="M 18 0 C 27.632812 0 35.511719 7.882812 35.511719 17.511719 C 35.511719 27.144531 27.632812 35.027344 18 35.027344 C 8.367188 35.027344 0.488281 27.144531 0.488281 17.511719 C 0.488281 7.882812 8.367188 0 18 0 Z M 18 1.292969 C 9.078125 1.292969 1.78125 8.59375 1.78125 17.511719 C 1.78125 26.433594 9.078125 33.734375 18 33.734375 C 26.921875 33.734375 34.21875 26.433594 34.21875 17.511719 C 34.21875 8.59375 26.921875 1.292969 18 1.292969 " fill-opacity="1" fill-rule="evenodd"/></g><path fill="#a87a08" d="M 8.964844 10.957031 L 27.035156 10.957031 C 27.398438 10.957031 27.726562 11.105469 27.960938 11.34375 C 28.199219 11.578125 28.347656 11.90625 28.347656 12.269531 L 28.347656 22.757812 C 28.347656 23.121094 28.199219 23.445312 27.960938 23.683594 C 27.726562 23.921875 27.398438 24.070312 27.035156 24.070312 L 8.964844 24.070312 C 8.601562 24.070312 8.273438 23.921875 8.039062 23.683594 C 7.800781 23.445312 7.652344 23.121094 7.652344 22.757812 L 7.652344 12.269531 C 7.652344 11.90625 7.800781 11.578125 8.039062 11.34375 C 8.273438 11.105469 8.601562 10.957031 8.964844 10.957031 Z M 27.035156 11.605469 L 8.964844 11.605469 C 8.78125 11.605469 8.617188 11.679688 8.496094 11.800781 C 8.375 11.921875 8.300781 12.085938 8.300781 12.269531 L 8.300781 22.757812 C 8.300781 22.941406 8.375 23.105469 8.496094 23.226562 C 8.617188 23.347656 8.78125 23.421875 8.964844 23.421875 L 27.035156 23.421875 C 27.21875 23.421875 27.382812 23.347656 27.503906 23.226562 C 27.625 23.105469 27.699219 22.941406 27.699219 22.757812 L 27.699219 12.269531 C 27.699219 12.085938 27.625 11.921875 27.503906 11.800781 C 27.382812 11.679688 27.21875 11.605469 27.035156 11.605469 " fill-opacity="1" fill-rule="nonzero"/><path fill="#a87a08" d="M 26.800781 13.464844 C 26.925781 13.335938 26.925781 13.132812 26.800781 13.007812 C 26.675781 12.878906 26.46875 12.878906 26.34375 13.007812 L 19.386719 19.964844 C 19.007812 20.34375 18.503906 20.535156 18 20.535156 C 17.496094 20.535156 16.992188 20.34375 16.613281 19.964844 L 9.65625 13.007812 C 9.53125 12.878906 9.324219 12.878906 9.199219 13.007812 C 9.074219 13.132812 9.074219 13.335938 9.199219 13.464844 L 16.15625 20.421875 C 16.664062 20.929688 17.332031 21.183594 18 21.183594 C 18.667969 21.183594 19.335938 20.929688 19.84375 20.421875 L 26.800781 13.464844 " fill-opacity="1" fill-rule="nonzero"/></svg>